TITLE "120.200, flac"
FILE "120.200.flac" WAVE

TRACK 01 AUDIO
TITLE "2020.02.06-06:00.53:993652"
INDEX 01 01:53:50

TRACK 02 AUDIO
TITLE "2020.02.06-06:01.03:109401"
INDEX 00 02:02:44
INDEX 01 02:02:58

TRACK 03 AUDIO
TITLE "2020.02.06-06:01.12:112759"
INDEX 00 02:11:36
INDEX 01 02:11:59

TRACK 04 AUDIO
TITLE "2020.02.06-06:01.17:669193"
INDEX 00 02:16:53
INDEX 01 02:17:25

TRACK 05 AUDIO
TITLE "2020.02.06-06:01.26:269972"
INDEX 00 02:22:55
INDEX 01 02:25:70

TRACK 06 AUDIO
TITLE "2020.02.06-06:01.35:109333"
INDEX 00 02:33:30
INDEX 01 02:34:58

TRACK 07 AUDIO
TITLE "2020.02.06-06:01.41:053259"
INDEX 00 02:40:03
INDEX 01 02:40:54

TRACK 08 AUDIO
TITLE "2020.02.06-06:03.20:449286"
INDEX 00 02:46:69
INDEX 01 04:20:09

TRACK 09 AUDIO
TITLE "2020.02.06-06:03.25:851785"
INDEX 00 04:25:10
INDEX 01 04:25:39

TRACK 10 AUDIO
TITLE "2020.02.06-06:05.22:773012"
INDEX 00 04:30:47
INDEX 01 06:22:33

TRACK 11 AUDIO
TITLE "2020.02.06-06:05.33:129721"
INDEX 00 06:28:24
INDEX 01 06:32:60

TRACK 12 AUDIO
TITLE "2020.02.06-06:05.42:953319"
INDEX 00 06:41:00
INDEX 01 06:42:47

TRACK 13 AUDIO
TITLE "2020.02.06-06:05.48:294412"
INDEX 00 06:47:08
INDEX 01 06:47:72

TRACK 14 AUDIO
TITLE "2020.02.06-06:07.00:653295"
INDEX 00 06:53:02
INDEX 01 08:00:24

TRACK 15 AUDIO
TITLE "2020.02.06-06:07.48:009299"
INDEX 00 08:25:09
INDEX 01 08:47:51

TRACK 16 AUDIO
TITLE "2020.02.06-06:07.55:211491"
INDEX 00 08:51:61
INDEX 01 08:54:66

TRACK 17 AUDIO
TITLE "2020.02.06-06:08.02:689570"
INDEX 00 09:01:30
INDEX 01 09:02:27

TRACK 18 AUDIO
TITLE "2020.02.06-06:09.03:194241"
INDEX 00 09:08:33
INDEX 01 10:02:65

TRACK 19 AUDIO
TITLE "2020.02.06-06:09.07:909359"
INDEX 00 10:07:30
INDEX 01 10:07:43

TRACK 20 AUDIO
TITLE "2020.02.06-06:09.35:749224"
INDEX 00 10:14:22
INDEX 01 10:35:31

TRACK 21 AUDIO
TITLE "2020.02.06-06:11.14:509386"
INDEX 00 10:45:43
INDEX 01 12:14:13

TRACK 22 AUDIO
TITLE "2020.02.06-06:12.00:649440"
INDEX 00 12:34:30
INDEX 01 13:00:24

TRACK 23 AUDIO
TITLE "2020.02.06-06:12.08:829261"
INDEX 00 13:05:18
INDEX 01 13:08:37

TRACK 24 AUDIO
TITLE "2020.02.06-06:14.08:809310"
INDEX 00 13:17:13
INDEX 01 15:08:36

TRACK 25 AUDIO
TITLE "2020.02.06-06:14.12:709316"
INDEX 00 15:11:69
INDEX 01 15:12:28

TRACK 26 AUDIO
TITLE "2020.02.06-06:14.47:069557"
INDEX 00 15:17:39
INDEX 01 15:46:55

TRACK 27 AUDIO
TITLE "2020.02.06-06:14.50:469220"
INDEX 00 15:49:72
INDEX 01 15:50:10

TRACK 28 AUDIO
TITLE "2020.02.06-06:15.18:329519"
INDEX 00 15:53:51
INDEX 01 16:18:00

TRACK 29 AUDIO
TITLE "2020.02.06-06:16.42:009338"
INDEX 00 16:31:69
INDEX 01 17:41:51

TRACK 30 AUDIO
TITLE "2020.02.06-06:16.49:249388"
INDEX 00 17:47:40
INDEX 01 17:48:69

TRACK 31 AUDIO
TITLE "2020.02.06-06:16.55:769207"
INDEX 00 17:54:39
INDEX 01 17:55:33

TRACK 32 AUDIO
TITLE "2020.02.06-06:17.16:569235"
INDEX 00 18:11:46
INDEX 01 18:16:18

TRACK 33 AUDIO
TITLE "2020.02.06-06:17.24:369796"
INDEX 00 18:22:51
INDEX 01 18:24:03

TRACK 34 AUDIO
TITLE "2020.02.06-06:17.44:169271"
INDEX 00 18:39:09
INDEX 01 18:43:63

TRACK 35 AUDIO
TITLE "2020.02.06-06:17.48:589355"
INDEX 00 18:47:61
INDEX 01 18:48:19

TRACK 36 AUDIO
TITLE "2020.02.06-06:18.02:669374"
INDEX 00 19:00:33
INDEX 01 19:02:25

TRACK 37 AUDIO
TITLE "2020.02.06-06:18.17:149297"
INDEX 00 19:13:42
INDEX 01 19:16:61

TRACK 38 AUDIO
TITLE "2020.02.06-06:18.25:449971"
INDEX 00 19:24:25
INDEX 01 19:25:09

TRACK 39 AUDIO
TITLE "2020.02.06-06:19.10:969430"
INDEX 00 20:08:72
INDEX 01 20:10:48

TRACK 40 AUDIO
TITLE "2020.02.06-06:19.19:369562"
INDEX 00 20:16:10
INDEX 01 20:19:03

TRACK 41 AUDIO
TITLE "2020.02.06-06:19.47:929889"
INDEX 00 20:27:03
INDEX 01 20:47:45

TRACK 42 AUDIO
TITLE "2020.02.06-06:19.51:989367"
INDEX 00 20:51:45
INDEX 01 20:51:49

TRACK 43 AUDIO
TITLE "2020.02.06-06:20.16:129266"
INDEX 00 20:56:30
INDEX 01 21:15:60

TRACK 44 AUDIO
TITLE "2020.02.06-06:20.41:369477"
INDEX 00 21:23:24
INDEX 01 21:41:03

TRACK 45 AUDIO
TITLE "2020.02.06-06:20.45:269188"
INDEX 00 21:44:49
INDEX 01 21:44:70

TRACK 46 AUDIO
TITLE "2020.02.06-06:21.07:769258"
INDEX 00 21:48:58
INDEX 01 22:07:33

TRACK 47 AUDIO
TITLE "2020.02.06-06:21.11:809343"
INDEX 00 22:11:15
INDEX 01 22:11:36

TRACK 48 AUDIO
TITLE "2020.02.06-06:23.00:629354"
INDEX 00 22:16:54
INDEX 01 24:00:22

TRACK 49 AUDIO
TITLE "2020.02.06-06:24.14:009371"
INDEX 00 24:16:63
INDEX 01 25:13:51

TRACK 50 AUDIO
TITLE "2020.02.06-06:24.21:669272"
INDEX 00 25:19:42
INDEX 01 25:21:25

TRACK 51 AUDIO
TITLE "2020.02.06-06:25.13:930622"
INDEX 00 25:25:67
INDEX 01 26:13:45

TRACK 52 AUDIO
TITLE "2020.02.06-06:25.25:331993"
INDEX 00 26:21:37
INDEX 01 26:25:00

TRACK 53 AUDIO
TITLE "2020.02.06-06:26.22:169305"
INDEX 00 26:42:06
INDEX 01 27:21:63

TRACK 54 AUDIO
TITLE "2020.02.06-06:26.29:269308"
INDEX 00 27:28:24
INDEX 01 27:28:70

TRACK 55 AUDIO
TITLE "2020.02.06-06:27.22:233751"
INDEX 00 27:40:61
INDEX 01 28:21:68

TRACK 56 AUDIO
TITLE "2020.02.06-06:28.12:809398"
INDEX 00 28:34:33
INDEX 01 29:12:36

TRACK 57 AUDIO
TITLE "2020.02.06-06:28.22:449395"
INDEX 00 29:18:25
INDEX 01 29:22:09

TRACK 58 AUDIO
TITLE "2020.02.06-06:28.50:431427"
INDEX 00 29:30:21
INDEX 01 29:50:08

TRACK 59 AUDIO
TITLE "2020.02.06-06:29.03:549396"
INDEX 00 30:03:03
INDEX 01 30:03:16

TRACK 60 AUDIO
TITLE "2020.02.06-06:31.55:369288"
INDEX 00 30:06:69
INDEX 01 32:55:03

TRACK 61 AUDIO
TITLE "2020.02.06-06:32.05:489287"
INDEX 00 33:01:16
INDEX 01 33:05:12

TRACK 62 AUDIO
TITLE "2020.02.06-06:32.12:091331"
INDEX 00 33:09:54
INDEX 01 33:11:57

TRACK 63 AUDIO
TITLE "2020.02.06-06:32.18:489323"
INDEX 00 33:16:09
INDEX 01 33:18:12

TRACK 64 AUDIO
TITLE "2020.02.06-06:32.24:109371"
INDEX 00 33:20:43
INDEX 01 33:23:58

TRACK 65 AUDIO
TITLE "2020.02.06-06:33.06:489348"
INDEX 00 33:33:43
INDEX 01 34:06:12

TRACK 66 AUDIO
TITLE "2020.02.06-06:33.13:549448"
INDEX 00 34:10:07
INDEX 01 34:13:16

TRACK 67 AUDIO
TITLE "2020.02.06-06:35.02:749294"
INDEX 00 34:20:07
INDEX 01 36:02:31

TRACK 68 AUDIO
TITLE "2020.02.06-06:35.11:969388"
INDEX 00 36:10:15
INDEX 01 36:11:48

TRACK 69 AUDIO
TITLE "2020.02.06-06:35.21:752868"
INDEX 00 36:20:70
INDEX 01 36:21:32

TRACK 70 AUDIO
TITLE "2020.02.06-06:37.10:569333"
INDEX 00 36:31:30
INDEX 01 38:10:18

TRACK 71 AUDIO
TITLE "2020.02.06-06:37.29:629228"
INDEX 00 38:23:51
INDEX 01 38:29:22

TRACK 72 AUDIO
TITLE "2020.02.06-06:37.50:952337"
INDEX 00 38:35:73
INDEX 01 38:50:47

TRACK 73 AUDIO
TITLE "2020.02.06-06:37.55:349383"
INDEX 00 38:54:41
INDEX 01 38:55:01

TRACK 74 AUDIO
TITLE "2020.02.06-06:38.01:869231"
INDEX 00 38:59:49
INDEX 01 39:01:40

TRACK 75 AUDIO
TITLE "2020.02.06-06:38.33:393220"
INDEX 00 39:05:22
INDEX 01 39:33:05

TRACK 76 AUDIO
TITLE "2020.02.06-06:39.23:849205"
INDEX 00 39:48:27
INDEX 01 40:23:39

TRACK 77 AUDIO
TITLE "2020.02.06-06:39.28:469412"
INDEX 00 40:27:06
INDEX 01 40:28:10

TRACK 78 AUDIO
TITLE "2020.02.06-06:40.32:470529"
INDEX 00 40:32:43
INDEX 01 41:32:10

TRACK 79 AUDIO
TITLE "2020.02.06-06:40.42:549428"
INDEX 00 41:37:09
INDEX 01 41:42:16

TRACK 80 AUDIO
TITLE "2020.02.06-06:41.43:209220"
INDEX 00 41:48:40
INDEX 01 42:42:66

TRACK 81 AUDIO
TITLE "2020.02.06-06:41.52:149203"
INDEX 00 42:51:03
INDEX 01 42:51:61

TRACK 82 AUDIO
TITLE "2020.02.06-06:43.24:529500"
INDEX 00 42:56:69
INDEX 01 44:24:15

TRACK 83 AUDIO
TITLE "2020.02.06-06:43.40:849285"
INDEX 00 44:29:37
INDEX 01 44:40:39

TRACK 84 AUDIO
TITLE "2020.02.06-06:43.49:789401"
INDEX 00 44:46:15
INDEX 01 44:49:34

TRACK 85 AUDIO
TITLE "2020.02.06-06:43.56:071556"
INDEX 00 44:53:61
INDEX 01 44:55:56

TRACK 86 AUDIO
TITLE "2020.02.06-06:44.35:849226"
INDEX 00 45:00:05
INDEX 01 45:35:39

TRACK 87 AUDIO
TITLE "2020.02.06-06:44.40:150035"
INDEX 00 45:39:24
INDEX 01 45:39:61

TRACK 88 AUDIO
TITLE "2020.02.06-06:45.59:609326"
INDEX 00 45:44:01
INDEX 01 46:59:21

TRACK 89 AUDIO
TITLE "2020.02.06-06:46.41:650112"
INDEX 00 47:06:43
INDEX 01 47:41:24

TRACK 90 AUDIO
TITLE "2020.02.06-06:46.50:549159"
INDEX 00 47:49:31
INDEX 01 47:50:16

TRACK 91 AUDIO
TITLE "2020.02.06-06:46.54:649364"
INDEX 00 47:53:42
INDEX 01 47:54:24

TRACK 92 AUDIO
TITLE "2020.02.06-06:48.13:229292"
INDEX 00 47:58:63
INDEX 01 49:12:67

TRACK 93 AUDIO
TITLE "2020.02.06-06:48.18:069308"
INDEX 00 49:17:01
INDEX 01 49:17:55

TRACK 94 AUDIO
TITLE "2020.02.06-06:48.31:569249"
INDEX 00 49:28:21
INDEX 01 49:31:18

TRACK 95 AUDIO
TITLE "2020.02.06-06:48.47:169403"
INDEX 00 49:46:34
INDEX 01 49:46:63

TRACK 96 AUDIO
TITLE "2020.02.06-06:50.32:249335"
INDEX 00 49:54:01
INDEX 01 51:31:69

TRACK 97 AUDIO
TITLE "2020.02.06-06:50.50:049445"
INDEX 00 51:45:36
INDEX 01 51:49:54

TRACK 98 AUDIO
TITLE "2020.02.06-06:50.54:609341"
INDEX 00 51:54:01
INDEX 01 51:54:21

TRACK 99 AUDIO
TITLE "2020.02.06-06:51.11:809205"
INDEX 00 51:57:48
INDEX 01 52:11:36

TRACK 100 AUDIO
TITLE "2020.02.06-06:51.25:469213"
INDEX 00 52:23:18
INDEX 01 52:25:10

TRACK 101 AUDIO
TITLE "2020.02.06-06:51.33:969347"
INDEX 00 52:33:34
INDEX 01 52:33:48

TRACK 102 AUDIO
TITLE "2020.02.06-06:51.49:409656"
INDEX 00 52:38:13
INDEX 01 52:49:06

TRACK 103 AUDIO
TITLE "2020.02.06-06:51.55:649224"
INDEX 00 52:54:09
INDEX 01 52:55:24

TRACK 104 AUDIO
TITLE "2020.02.06-06:52.46:069385"
INDEX 00 53:08:07
INDEX 01 53:45:55

TRACK 105 AUDIO
TITLE "2020.02.06-06:52.51:333224"
INDEX 00 53:50:69
INDEX 01 53:51:00

TRACK 106 AUDIO
TITLE "2020.02.06-06:53.01:251101"
INDEX 00 53:59:23
INDEX 01 54:00:69

TRACK 107 AUDIO
TITLE "2020.02.06-06:53.26:809351"
INDEX 00 54:15:27
INDEX 01 54:26:36

TRACK 108 AUDIO
TITLE "2020.02.06-06:54.37:829272"
INDEX 00 54:34:69
INDEX 01 55:37:37

TRACK 109 AUDIO
TITLE "2020.02.06-06:54.42:453151"
INDEX 00 55:41:25
INDEX 01 55:42:09

TRACK 110 AUDIO
TITLE "2020.02.06-06:56.24:169360"
INDEX 00 55:45:74
INDEX 01 57:23:63

TRACK 111 AUDIO
TITLE "2020.02.06-06:56.28:649500"
INDEX 00 57:28:13
INDEX 01 57:28:24

TRACK 112 AUDIO
TITLE "2020.02.06-06:56.34:169433"
INDEX 00 57:32:70
INDEX 01 57:33:63

TRACK 113 AUDIO
TITLE "2020.02.06-06:56.50:692005"
INDEX 00 57:40:27
INDEX 01 57:50:27

TRACK 114 AUDIO
TITLE "2020.02.06-06:56.57:549361"
INDEX 00 57:56:63
INDEX 01 57:57:16

TRACK 115 AUDIO
TITLE "2020.02.06-06:57.13:309447"
INDEX 00 58:05:31
INDEX 01 58:12:73

TRACK 116 AUDIO
TITLE "2020.02.06-06:57.24:649310"
INDEX 00 58:23:67
INDEX 01 58:24:24

TRACK 117 AUDIO
TITLE "2020.02.06-07:01.09:009308"
INDEX 00 58:37:33
INDEX 01 62:08:51

TRACK 118 AUDIO
TITLE "2020.02.06-07:01.13:250046"
INDEX 00 62:10:36
INDEX 01 62:12:69

TRACK 119 AUDIO
TITLE "2020.02.06-07:01.14:689234"
INDEX 00 62:14:00
INDEX 01 62:14:27

